<?xml version="1.0" encoding="UTF-8" standalone="no"?>
<!DOCTYPE svg PUBLIC "-//W3C//DTD SVG 1.1//EN" "http://www.w3.org/Graphics/SVG/1.1/DTD/svg11.dtd">
<svg width="100%" height="100%" viewBox="0 0 324 635" version="1.1" xmlns="http://www.w3.org/2000/svg" xmlns:xlink="http://www.w3.org/1999/xlink" xml:space="preserve" xmlns:serif="http://www.serif.com/" style="fill-rule:evenodd;clip-rule:evenodd;stroke-linejoin:round;stroke-miterlimit:2;">
    <g transform="matrix(3.31352,0,0,3.57459,-3278.7,-5641.74)">
        <path d="M1021.46,1623.54C1023.65,1598.32 1035.18,1579.07 1049.06,1579.07C1064.5,1579.07 1077.04,1602.91 1077.04,1632.27C1077.04,1661.63 1064.5,1685.47 1049.06,1685.47C1044.31,1685.47 1039.83,1683.21 1035.91,1679.23C1034.12,1681.33 1031.94,1682.9 1029.4,1683.76C1018.41,1687.47 1004.82,1676.65 999.066,1659.61C993.315,1642.58 997.569,1625.74 1008.56,1622.03C1012.68,1620.64 1017.16,1621.29 1021.46,1623.54Z" style="fill:rgb(149,181,148);"/>
    </g>
    <g transform="matrix(3.31352,0,0,3.57459,-3278.7,-5641.74)">
        <path d="M1064.06,1667.18L1019.5,1669.28C1014.54,1669.09 1007.38,1668.87 1002.71,1670.95C994.157,1674.79 998.128,1685.28 999.366,1691.6C1001.19,1700.88 1002.99,1710.17 1004.95,1719.43C1006.49,1726.74 1008.11,1734.62 1012.09,1741.13C1018.14,1751.02 1031.05,1755.32 1042.02,1755.64C1049.07,1755.85 1057.76,1755.17 1064.31,1752.22C1073.35,1748.15 1075.29,1735.18 1077.51,1727.29C1079.53,1720.06 1081.53,1712.83 1083.38,1705.56C1086.38,1693.76 1087.61,1689.87 1087.03,1677.62C1086.9,1674.93 1085.07,1671.61 1082.55,1670.41C1079.72,1669.06 1076.64,1668.2 1073.55,1667.66C1070.43,1667.12 1067.22,1667.08 1064.06,1667.18" style="fill:rgb(231,189,209);"/>
    </g>
    <g transform="matrix(3.31352,0,0,3.57459,-3278.7,-5641.74)">
        <path d="M1004.13,1652.51C1003.29,1651.67 1001.5,1651.19 1000.2,1650.76C996.876,1649.65 993.264,1648.51 989.644,1648.51C989.56,1648.51 989.493,1648.57 989.493,1648.65C989.493,1648.73 989.56,1648.79 989.644,1648.79C993.229,1648.79 996.806,1649.92 1000.1,1651.02C1001.36,1651.44 1003.1,1651.89 1003.91,1652.7C1003.97,1652.76 1004.06,1652.76 1004.12,1652.71C1004.18,1652.66 1004.19,1652.57 1004.13,1652.51Z" style="fill:rgb(240,190,166);"/>
    </g>
    <g transform="matrix(3.31352,0,0,3.57459,-3278.7,-5641.74)">
        <path d="M1004.13,1649.93C1003.49,1649.29 1002.34,1648.79 1001.44,1648.19C999.062,1646.61 996.439,1645.39 994.215,1643.72C993.477,1643.17 992.642,1642.76 991.884,1642.25C991.72,1642.14 991.559,1641.96 991.412,1641.81C991.297,1641.7 991.187,1641.6 991.093,1641.55C990.975,1641.49 990.765,1641.4 990.616,1641.28C990.544,1641.22 990.483,1641.15 990.483,1641.07C990.483,1641 990.416,1640.93 990.332,1640.93C990.249,1640.93 990.181,1641 990.181,1641.07C990.181,1641.23 990.274,1641.37 990.414,1641.49C990.582,1641.63 990.817,1641.73 990.949,1641.8C991.022,1641.84 991.102,1641.91 991.19,1642C991.35,1642.16 991.528,1642.36 991.708,1642.48C992.461,1642.98 993.292,1643.39 994.025,1643.94C996.253,1645.61 998.881,1646.83 1001.26,1648.42C1002.15,1649.01 1003.28,1649.49 1003.91,1650.12C1003.97,1650.18 1004.06,1650.18 1004.12,1650.13C1004.18,1650.08 1004.19,1649.99 1004.13,1649.93Z" style="fill:rgb(240,190,166);"/>
    </g>
    <g transform="matrix(3.31352,0,0,3.57459,-3278.7,-5641.74)">
        <path d="M1071.97,1643.37C1072.04,1643.3 1072.17,1643.15 1072.24,1643.12C1072.34,1643.06 1072.45,1642.97 1072.57,1642.85C1072.72,1642.71 1072.88,1642.54 1073.08,1642.44C1074.17,1641.9 1074.63,1641.18 1075.79,1640.42C1077.23,1639.45 1078.72,1638.15 1080.01,1636.87C1080.26,1636.62 1080.56,1636.44 1080.83,1636.24C1081.12,1636.03 1081.39,1635.81 1081.55,1635.49C1081.61,1635.38 1081.72,1635.28 1081.86,1635.17C1082.1,1635 1082.41,1634.83 1082.67,1634.65C1082.86,1634.52 1083.02,1634.39 1083.12,1634.25C1083.2,1634.14 1083.25,1634.03 1083.25,1633.91C1083.25,1633.84 1083.18,1633.77 1083.1,1633.77C1083.01,1633.77 1082.94,1633.84 1082.94,1633.91C1082.94,1634 1082.9,1634.07 1082.83,1634.15C1082.74,1634.24 1082.62,1634.34 1082.49,1634.43C1082.23,1634.6 1081.91,1634.78 1081.67,1634.95C1081.49,1635.09 1081.35,1635.23 1081.28,1635.37C1081.14,1635.65 1080.9,1635.84 1080.64,1636.02C1080.36,1636.22 1080.05,1636.42 1079.79,1636.68C1078.52,1637.95 1077.04,1639.24 1075.61,1640.19C1074.47,1640.95 1074.02,1641.66 1072.93,1642.2C1072.74,1642.29 1072.58,1642.44 1072.43,1642.58C1072.31,1642.7 1072.2,1642.82 1072.09,1642.87C1071.96,1642.94 1071.71,1643.23 1071.68,1643.28C1071.63,1643.35 1071.67,1643.41 1071.68,1643.42C1071.71,1643.47 1071.75,1643.5 1071.82,1643.49C1071.83,1643.49 1071.88,1643.49 1071.94,1643.42C1071.96,1643.41 1071.97,1643.39 1071.97,1643.37Z" style="fill:rgb(240,190,166);"/>
    </g>
    <g transform="matrix(3.31352,0,0,3.57459,-3278.7,-5641.74)">
        <path d="M1070.93,1636.36C1071.25,1636.05 1071.65,1635.93 1072.06,1635.8C1072.51,1635.66 1072.95,1635.52 1073.29,1635.19C1074.51,1633.96 1077.02,1633.16 1078.63,1632.36C1079.18,1632.08 1079.82,1631.59 1080.44,1631.24C1080.84,1631.02 1081.22,1630.86 1081.58,1630.86C1081.66,1630.86 1081.73,1630.8 1081.73,1630.72C1081.73,1630.64 1081.66,1630.58 1081.58,1630.58C1081.17,1630.58 1080.73,1630.75 1080.29,1631C1079.67,1631.35 1079.03,1631.84 1078.48,1632.11C1076.85,1632.93 1074.31,1633.75 1073.06,1635C1072.76,1635.3 1072.36,1635.41 1071.96,1635.54C1071.51,1635.68 1071.06,1635.82 1070.71,1636.17C1070.65,1636.23 1070.66,1636.32 1070.72,1636.37C1070.78,1636.42 1070.88,1636.42 1070.93,1636.36Z" style="fill:rgb(240,190,166);"/>
    </g>
    <g transform="matrix(3.31352,0,0,3.57459,-3278.7,-5641.74)">
        <path d="M1061.39,1627.19C1061.39,1626.82 1061.69,1626.29 1062.09,1625.74C1062.71,1624.91 1063.6,1624.06 1064.17,1623.78C1064.36,1623.68 1064.54,1623.5 1064.71,1623.28C1064.94,1622.99 1065.16,1622.63 1065.38,1622.41C1066.07,1621.72 1067.31,1621.03 1068.08,1620.22C1068.78,1619.48 1069.79,1618.97 1070.81,1618.46C1071.85,1617.94 1072.89,1617.42 1073.62,1616.69C1073.68,1616.63 1073.67,1616.55 1073.61,1616.49C1073.55,1616.44 1073.46,1616.44 1073.4,1616.5C1072.69,1617.21 1071.67,1617.71 1070.66,1618.22C1069.62,1618.74 1068.57,1619.27 1067.85,1620.04C1067.08,1620.84 1065.85,1621.53 1065.16,1622.22C1064.93,1622.45 1064.71,1622.81 1064.47,1623.12C1064.33,1623.3 1064.18,1623.46 1064.02,1623.54C1063.43,1623.83 1062.5,1624.71 1061.84,1625.59C1061.4,1626.18 1061.09,1626.78 1061.09,1627.19C1061.09,1627.27 1061.15,1627.33 1061.24,1627.33C1061.32,1627.33 1061.39,1627.27 1061.39,1627.19Z" style="fill:rgb(240,190,166);"/>
    </g>
    <g transform="matrix(3.31352,0,0,3.57459,-3278.7,-5641.74)">
        <path d="M1043.55,1622.88C1044.65,1620.68 1047.09,1617.94 1049.54,1616.72C1049.61,1616.68 1049.64,1616.6 1049.6,1616.53C1049.56,1616.46 1049.47,1616.44 1049.4,1616.47C1046.9,1617.72 1044.4,1620.51 1043.28,1622.76C1043.24,1622.83 1043.28,1622.91 1043.35,1622.94C1043.43,1622.98 1043.52,1622.95 1043.55,1622.88Z" style="fill:rgb(240,190,166);"/>
    </g>
    <g transform="matrix(3.31352,0,0,3.57459,-3278.7,-5641.74)">
        <path d="M1036.84,1612.39C1036.84,1608.88 1034.9,1605.87 1033.47,1602.59C1033.44,1602.52 1033.35,1602.48 1033.27,1602.51C1033.19,1602.54 1033.16,1602.62 1033.19,1602.69C1034.61,1605.94 1036.54,1608.91 1036.54,1612.39C1036.54,1612.47 1036.61,1612.53 1036.69,1612.53C1036.77,1612.53 1036.84,1612.47 1036.84,1612.39Z" style="fill:rgb(240,190,166);"/>
    </g>
    <g transform="matrix(3.31352,0,0,3.57459,-3278.7,-5641.74)">
        <path d="M1043.55,1597.99C1043.71,1597.68 1043.73,1597.34 1043.74,1597C1043.76,1596.69 1043.76,1596.39 1043.89,1596.14C1044.32,1595.27 1044.77,1594.36 1045.07,1593.44C1045.22,1592.99 1045.67,1592.58 1046,1592.16C1046.24,1591.84 1046.42,1591.53 1046.42,1591.21C1046.42,1591.13 1046.36,1591.07 1046.27,1591.07C1046.19,1591.07 1046.12,1591.13 1046.12,1591.21C1046.12,1591.55 1045.86,1591.87 1045.58,1592.2C1045.26,1592.58 1044.92,1592.96 1044.79,1593.35C1044.48,1594.26 1044.05,1595.17 1043.62,1596.03C1043.47,1596.31 1043.46,1596.64 1043.44,1596.99C1043.43,1597.29 1043.42,1597.6 1043.28,1597.88C1043.24,1597.94 1043.28,1598.03 1043.35,1598.06C1043.43,1598.09 1043.52,1598.06 1043.55,1597.99Z" style="fill:rgb(240,190,166);"/>
    </g>
    <g transform="matrix(3.31352,0,0,3.57459,-3278.7,-5641.74)">
        <path d="M1059.37,1605.5C1059.37,1605.07 1059.55,1604.64 1059.8,1604.21C1060.19,1603.53 1060.77,1602.85 1061.2,1602.21C1062.56,1600.17 1064.07,1597.84 1066.04,1596.36C1067.13,1595.55 1068.46,1594.78 1069.42,1593.83C1069.47,1593.77 1069.47,1593.68 1069.41,1593.63C1069.35,1593.58 1069.25,1593.58 1069.2,1593.63C1068.25,1594.58 1066.93,1595.34 1065.85,1596.14C1063.85,1597.64 1062.32,1600 1060.94,1602.06C1060.51,1602.71 1059.93,1603.39 1059.53,1604.08C1059.26,1604.55 1059.07,1605.03 1059.07,1605.5C1059.07,1605.58 1059.14,1605.64 1059.22,1605.64C1059.3,1605.64 1059.37,1605.58 1059.37,1605.5Z" style="fill:rgb(240,190,166);"/>
    </g>
    <g transform="matrix(3.31352,0,0,3.57459,-3278.7,-5641.74)">
        <path d="M1055.67,1595.24C1055.67,1591.55 1055.84,1587.62 1055.84,1583.81C1055.84,1583.73 1055.77,1583.67 1055.69,1583.67C1055.61,1583.67 1055.54,1583.73 1055.54,1583.81C1055.54,1587.62 1055.37,1591.55 1055.37,1595.24C1055.37,1595.32 1055.44,1595.38 1055.52,1595.38C1055.6,1595.38 1055.67,1595.32 1055.67,1595.24Z" style="fill:rgb(240,190,166);"/>
    </g>
    <g transform="matrix(3.31352,0,0,3.57459,-3278.7,-5641.74)">
        <path d="M1040.54,1590.17C1039.91,1587.68 1038.24,1585.75 1036.36,1583.92C1034.51,1582.11 1032.47,1580.41 1031.1,1578.36C1031.06,1578.29 1030.96,1578.27 1030.89,1578.31C1030.82,1578.35 1030.8,1578.44 1030.85,1578.5C1032.22,1580.57 1034.28,1582.29 1036.14,1584.11C1037.98,1585.9 1039.63,1587.79 1040.24,1590.23C1040.26,1590.31 1040.34,1590.35 1040.42,1590.34C1040.5,1590.32 1040.56,1590.24 1040.54,1590.17Z" style="fill:rgb(240,190,166);"/>
    </g>
    <g transform="matrix(3.31352,0,0,3.57459,-3278.7,-5641.74)">
        <path d="M1030.41,1602.38C1028.88,1600.84 1027.53,1598.44 1025.35,1596.98C1025.06,1596.79 1024.48,1596.13 1024.01,1595.75C1023.88,1595.64 1023.76,1595.56 1023.65,1595.51C1023.56,1595.46 1023.48,1595.44 1023.41,1595.44C1023.33,1595.44 1023.26,1595.5 1023.26,1595.58C1023.26,1595.66 1023.33,1595.72 1023.41,1595.72C1023.44,1595.72 1023.47,1595.73 1023.51,1595.75C1023.6,1595.8 1023.71,1595.87 1023.82,1595.96C1024.29,1596.34 1024.88,1597.01 1025.17,1597.21C1027.34,1598.65 1028.67,1601.04 1030.19,1602.57C1030.25,1602.62 1030.34,1602.63 1030.4,1602.58C1030.46,1602.52 1030.47,1602.43 1030.41,1602.38Z" style="fill:rgb(240,190,166);"/>
    </g>
    <g transform="matrix(3.31352,0,0,3.57459,-3278.7,-5641.74)">
        <path d="M1027.22,1612.13C1025.15,1610.06 1022.51,1607.66 1019.61,1606.22C1019.54,1606.18 1019.45,1606.21 1019.41,1606.27C1019.37,1606.34 1019.4,1606.43 1019.47,1606.46C1022.34,1607.9 1024.95,1610.27 1027,1612.32C1027.05,1612.38 1027.15,1612.38 1027.21,1612.33C1027.27,1612.28 1027.27,1612.19 1027.22,1612.13Z" style="fill:rgb(240,190,166);"/>
    </g>
    <g transform="matrix(3.31352,0,0,3.57459,-3278.7,-5641.74)">
        <path d="M1028.9,1629.95C1027.67,1628.73 1025.9,1625.82 1024,1624.55C1022.97,1623.87 1021.7,1622.92 1020.83,1622.05C1020.77,1621.99 1020.68,1621.99 1020.62,1622.04C1020.55,1622.1 1020.55,1622.18 1020.61,1622.24C1021.49,1623.12 1022.78,1624.09 1023.82,1624.78C1025.71,1626.04 1027.46,1628.92 1028.68,1630.14C1028.73,1630.2 1028.83,1630.2 1028.89,1630.15C1028.95,1630.1 1028.95,1630.01 1028.9,1629.95Z" style="fill:rgb(240,190,166);"/>
    </g>
    <g transform="matrix(3.31352,0,0,3.57459,-3278.7,-5641.74)">
        <path d="M1005.57,1630.89C1005.57,1628.05 1004.51,1625.88 1003.07,1623.85C1001.64,1621.85 999.832,1619.97 998.316,1617.7C998.273,1617.63 998.18,1617.61 998.109,1617.65C998.038,1617.69 998.016,1617.78 998.06,1617.85C999.576,1620.12 1001.38,1622 1002.81,1624.01C1004.23,1625.99 1005.27,1628.11 1005.27,1630.89C1005.27,1630.97 1005.33,1631.03 1005.42,1631.03C1005.5,1631.03 1005.57,1630.97 1005.57,1630.89Z" style="fill:rgb(240,190,166);"/>
    </g>
    <g transform="matrix(3.31352,0,0,3.57459,-3278.7,-5641.74)">
        <path d="M1001.03,1635.09C1001.03,1634.84 1000.84,1634.55 1000.57,1634.28C1000.21,1633.91 999.716,1633.56 999.476,1633.32C997.655,1631.49 995.42,1630.23 993.239,1628.59C992.827,1628.29 992.271,1628.07 991.73,1627.85C991.22,1627.64 990.724,1627.42 990.396,1627.09C990.34,1627.04 990.244,1627.03 990.183,1627.09C990.122,1627.14 990.119,1627.23 990.175,1627.28C990.528,1627.64 991.058,1627.88 991.607,1628.1C992.124,1628.32 992.657,1628.52 993.049,1628.81C995.218,1630.44 997.444,1631.69 999.254,1633.51C999.494,1633.75 999.991,1634.1 1000.35,1634.47C1000.56,1634.68 1000.73,1634.89 1000.73,1635.09C1000.73,1635.17 1000.8,1635.23 1000.88,1635.23C1000.96,1635.23 1001.03,1635.17 1001.03,1635.09Z" style="fill:rgb(240,190,166);"/>
    </g>
    <g transform="matrix(3.31352,0,0,3.57459,-3278.7,-5641.74)">
        <path d="M1011.94,1625.9C1012.53,1624.74 1012.46,1623.94 1012.96,1622.35C1013.49,1620.67 1014.98,1617.53 1014.98,1615.59C1014.98,1615.51 1014.92,1615.45 1014.83,1615.45C1014.75,1615.45 1014.68,1615.51 1014.68,1615.59C1014.68,1617.51 1013.19,1620.61 1012.67,1622.27C1012.18,1623.84 1012.25,1624.63 1011.67,1625.79C1011.63,1625.86 1011.67,1625.94 1011.74,1625.97C1011.82,1626 1011.91,1625.97 1011.94,1625.9Z" style="fill:rgb(240,190,166);"/>
    </g>
    <g transform="matrix(3.31352,0,0,3.57459,-3278.7,-5641.74)">
        <path d="M1014.6,1633.48C1010.24,1629.74 1010.34,1629.68 1007.19,1627.58C1006.84,1627.35 1006.35,1626.79 1005.84,1626.39C1005.47,1626.09 1005.08,1625.87 1004.75,1625.87C1004.66,1625.87 1004.59,1625.93 1004.59,1626.01C1004.59,1626.09 1004.66,1626.15 1004.75,1626.15C1005.02,1626.15 1005.33,1626.35 1005.64,1626.6C1006.16,1627.01 1006.66,1627.57 1007.01,1627.81C1010.15,1629.9 1010.05,1629.96 1014.39,1633.68C1014.46,1633.73 1014.55,1633.73 1014.61,1633.67C1014.66,1633.62 1014.66,1633.53 1014.6,1633.48Z" style="fill:rgb(240,190,166);"/>
    </g>
    <g transform="matrix(3.31352,0,0,3.57459,-3278.7,-5641.74)">
        <path d="M1015.91,1650.1C1008.34,1646.31 999.46,1645.77 991.166,1643.7C991.085,1643.68 991.002,1643.72 990.981,1643.8C990.959,1643.87 991.007,1643.95 991.087,1643.97C999.36,1646.04 1008.22,1646.57 1015.77,1650.35C1015.84,1650.38 1015.94,1650.36 1015.98,1650.29C1016.01,1650.22 1015.99,1650.14 1015.91,1650.1Z" style="fill:rgb(240,190,166);"/>
    </g>
    <g transform="matrix(3.31352,0,0,3.57459,-3278.7,-5641.74)">
        <path d="M1010.24,1664.92C1009.12,1663.81 1007.25,1663 1005.66,1662.2C1002.96,1660.87 1000.34,1659.31 997.398,1658.33C997.32,1658.3 997.234,1658.34 997.205,1658.41C997.177,1658.49 997.218,1658.57 997.296,1658.59C1000.22,1659.57 1002.83,1661.12 1005.51,1662.45C1007.08,1663.23 1008.92,1664.02 1010.01,1665.11C1010.07,1665.17 1010.17,1665.17 1010.23,1665.12C1010.29,1665.07 1010.29,1664.98 1010.24,1664.92Z" style="fill:rgb(240,190,166);"/>
    </g>
    <g transform="matrix(3.31352,0,0,3.57459,-3278.7,-5641.74)">
        <path d="M1024.06,1650.39C1024.06,1646.91 1024.73,1643.04 1026.73,1640.04C1027.68,1638.62 1028.86,1637.14 1029.6,1635.65C1029.63,1635.58 1029.6,1635.5 1029.52,1635.47C1029.45,1635.44 1029.36,1635.47 1029.32,1635.54C1028.59,1637.01 1027.42,1638.48 1026.47,1639.89C1024.44,1642.94 1023.76,1646.86 1023.76,1650.39C1023.76,1650.47 1023.83,1650.53 1023.91,1650.53C1024,1650.53 1024.06,1650.47 1024.06,1650.39Z" style="fill:rgb(240,190,166);"/>
    </g>
    <g transform="matrix(3.31352,0,0,3.57459,-3278.7,-5641.74)">
        <path d="M1030.08,1658.03C1025.91,1653.86 1021.03,1651.65 1015.91,1649.09C1013.73,1648 1011.25,1646.83 1008.82,1646.22C1008.74,1646.2 1008.66,1646.25 1008.63,1646.32C1008.61,1646.39 1008.66,1646.47 1008.74,1646.49C1011.15,1647.09 1013.6,1648.25 1015.77,1649.34C1020.86,1651.88 1025.71,1654.08 1029.85,1658.22C1029.91,1658.28 1030.01,1658.28 1030.07,1658.23C1030.13,1658.17 1030.13,1658.09 1030.08,1658.03Z" style="fill:rgb(240,190,166);"/>
    </g>
    <g transform="matrix(3.31352,0,0,3.57459,-3278.7,-5641.74)">
        <path d="M1020.83,1665.93C1020.63,1665.74 1020.55,1665.5 1020.47,1665.26C1020.39,1664.98 1020.32,1664.7 1020.18,1664.45C1019.19,1662.7 1018.18,1660.96 1017.15,1659.24C1016.9,1658.81 1016.56,1658.4 1016.29,1657.96C1016.03,1657.55 1015.83,1657.11 1015.83,1656.61C1015.83,1656.54 1015.76,1656.47 1015.67,1656.47C1015.59,1656.47 1015.52,1656.54 1015.52,1656.61C1015.52,1657.16 1015.74,1657.65 1016.03,1658.11C1016.3,1658.54 1016.64,1658.95 1016.89,1659.37C1017.91,1661.1 1018.93,1662.83 1019.91,1664.58C1020.04,1664.81 1020.1,1665.08 1020.18,1665.33C1020.27,1665.62 1020.38,1665.89 1020.61,1666.12C1020.66,1666.18 1020.76,1666.18 1020.82,1666.13C1020.88,1666.08 1020.88,1665.99 1020.83,1665.93Z" style="fill:rgb(240,190,166);"/>
    </g>
    <g transform="matrix(3.31352,0,0,3.57459,-3278.7,-5641.74)">
        <path d="M1037.18,1649.89C1037.18,1642.95 1041.55,1637.63 1047.2,1633.86C1047.27,1633.81 1047.29,1633.73 1047.24,1633.66C1047.19,1633.6 1047.09,1633.59 1047.03,1633.63C1041.3,1637.45 1036.88,1642.86 1036.88,1649.89C1036.88,1649.96 1036.94,1650.03 1037.03,1650.03C1037.11,1650.03 1037.18,1649.96 1037.18,1649.89Z" style="fill:rgb(240,190,166);"/>
    </g>
    <g transform="matrix(3.31352,0,0,3.57459,-3278.7,-5641.74)">
        <path d="M1036.83,1635.05C1035.6,1631.34 1033.49,1627.51 1031.62,1623.77C1031.23,1623 1030.92,1621.98 1030.49,1621.09C1030.2,1620.47 1029.85,1619.91 1029.39,1619.52C1029.33,1619.47 1029.24,1619.47 1029.18,1619.53C1029.12,1619.58 1029.13,1619.67 1029.19,1619.73C1029.72,1620.18 1030.1,1620.9 1030.42,1621.65C1030.75,1622.42 1031.02,1623.24 1031.34,1623.88C1033.21,1627.62 1035.31,1631.43 1036.55,1635.13C1036.57,1635.21 1036.65,1635.25 1036.74,1635.23C1036.81,1635.2 1036.86,1635.12 1036.83,1635.05Z" style="fill:rgb(240,190,166);"/>
    </g>
    <g transform="matrix(3.31352,0,0,3.57459,-3278.7,-5641.74)">
        <path d="M1049.62,1655.77C1049.62,1651.79 1052.64,1647.2 1055.14,1644.09C1056.12,1642.86 1057.38,1641.16 1058.64,1640.25C1059.51,1639.62 1060.55,1639.18 1061.35,1638.38C1061.4,1638.32 1061.4,1638.24 1061.34,1638.18C1061.28,1638.13 1061.18,1638.13 1061.13,1638.19C1060.34,1638.98 1059.31,1639.4 1058.45,1640.03C1057.17,1640.95 1055.89,1642.67 1054.89,1643.92C1052.37,1647.08 1049.32,1651.74 1049.32,1655.77C1049.32,1655.85 1049.38,1655.91 1049.47,1655.91C1049.55,1655.91 1049.62,1655.85 1049.62,1655.77Z" style="fill:rgb(240,190,166);"/>
    </g>
    <g transform="matrix(3.31352,0,0,3.57459,-3278.7,-5641.74)">
        <path d="M1055.16,1631.02C1054.75,1629.37 1054.72,1627.61 1053.98,1626.12C1053.12,1624.4 1051.68,1622.97 1050.25,1621.55C1050.19,1621.49 1050.1,1621.49 1050.04,1621.54C1049.98,1621.59 1049.97,1621.68 1050.03,1621.74C1051.44,1623.14 1052.86,1624.54 1053.7,1626.24C1054.44,1627.71 1054.46,1629.45 1054.87,1631.09C1054.89,1631.16 1054.97,1631.21 1055.05,1631.19C1055.13,1631.17 1055.18,1631.1 1055.16,1631.02Z" style="fill:rgb(240,190,166);"/>
    </g>
    <g transform="matrix(3.31352,0,0,3.57459,-3278.7,-5641.74)">
        <path d="M1043.23,1662.5C1043.23,1660.57 1042.88,1658.47 1042.68,1656.39C1042.48,1654.33 1042.44,1652.28 1043.06,1650.43C1043.24,1649.88 1043.27,1649.08 1043.4,1648.37C1043.49,1647.94 1043.61,1647.54 1043.86,1647.29C1043.92,1647.24 1043.91,1647.15 1043.85,1647.09C1043.79,1647.04 1043.7,1647.05 1043.64,1647.1C1043.36,1647.39 1043.2,1647.83 1043.11,1648.32C1042.97,1649.01 1042.95,1649.81 1042.77,1650.35C1042.14,1652.23 1042.18,1654.31 1042.38,1656.41C1042.58,1658.49 1042.93,1660.58 1042.93,1662.5C1042.93,1662.57 1043,1662.64 1043.08,1662.64C1043.16,1662.64 1043.23,1662.57 1043.23,1662.5Z" style="fill:rgb(240,190,166);"/>
    </g>
    <g transform="matrix(3.31352,0,0,3.57459,-3278.7,-5641.74)">
        <path d="M1061.56,1661.66C1061.56,1660.17 1062.93,1658.9 1064.68,1657.86C1067.38,1656.25 1070.99,1655.17 1072.22,1654.72C1072.3,1654.7 1072.34,1654.62 1072.31,1654.54C1072.28,1654.47 1072.19,1654.44 1072.11,1654.46C1070.87,1654.91 1067.23,1656 1064.52,1657.62C1062.67,1658.73 1061.26,1660.09 1061.26,1661.66C1061.26,1661.73 1061.32,1661.8 1061.41,1661.8C1061.49,1661.8 1061.56,1661.73 1061.56,1661.66Z" style="fill:rgb(240,190,166);"/>
    </g>
    <g transform="matrix(3.31352,0,0,3.57459,-3278.7,-5641.74)">
        <path d="M1065.59,1650.01C1064.7,1647.35 1063.16,1644.66 1061.88,1642.09C1061.64,1641.62 1061.48,1640.97 1061.26,1640.39C1061.11,1639.98 1060.92,1639.62 1060.68,1639.37C1060.62,1639.31 1060.52,1639.31 1060.46,1639.36C1060.4,1639.41 1060.4,1639.5 1060.45,1639.56C1060.68,1639.78 1060.84,1640.12 1060.98,1640.48C1061.2,1641.07 1061.37,1641.73 1061.61,1642.21C1062.88,1644.76 1064.41,1647.44 1065.3,1650.1C1065.32,1650.17 1065.41,1650.21 1065.49,1650.19C1065.57,1650.17 1065.61,1650.09 1065.59,1650.01Z" style="fill:rgb(240,190,166);"/>
    </g>
    <g transform="matrix(3.31352,0,0,3.57459,-3278.7,-5641.74)">
        <path d="M1056.68,1663C1056.68,1661.93 1056.09,1660.63 1055.23,1659.36C1053.96,1657.47 1052.09,1655.62 1050.74,1654.65C1049.9,1654.06 1049.3,1653.26 1048.36,1652.79C1048.29,1652.75 1048.2,1652.78 1048.16,1652.85C1048.12,1652.91 1048.15,1653 1048.22,1653.04C1049.14,1653.5 1049.73,1654.29 1050.55,1654.87C1051.89,1655.82 1053.72,1657.64 1054.97,1659.51C1055.8,1660.73 1056.38,1661.98 1056.38,1663C1056.38,1663.08 1056.45,1663.14 1056.53,1663.14C1056.61,1663.14 1056.68,1663.08 1056.68,1663Z" style="fill:rgb(240,190,166);"/>
    </g>
    <g transform="matrix(3.31352,0,0,3.57459,-3278.7,-5641.74)">
        <path d="M1052.47,1637.15C1053.41,1634.34 1054.28,1632.67 1056.14,1630.82C1056.19,1630.76 1056.19,1630.67 1056.13,1630.62C1056.07,1630.56 1055.97,1630.57 1055.91,1630.62C1054.02,1632.52 1053.14,1634.2 1052.18,1637.07C1052.16,1637.14 1052.2,1637.22 1052.28,1637.24C1052.36,1637.27 1052.45,1637.22 1052.47,1637.15Z" style="fill:rgb(240,190,166);"/>
    </g>
    <g transform="matrix(3.31352,0,0,3.57459,-3278.7,-5641.74)">
        <path d="M1071.98,1632.07C1071.98,1629.89 1070.53,1627.7 1068.75,1625.92C1068.69,1625.86 1068.59,1625.86 1068.53,1625.91C1068.47,1625.96 1068.47,1626.05 1068.53,1626.11C1070.25,1627.83 1071.68,1629.96 1071.68,1632.07C1071.68,1632.14 1071.75,1632.2 1071.83,1632.2C1071.91,1632.2 1071.98,1632.14 1071.98,1632.07Z" style="fill:rgb(240,190,166);"/>
    </g>
    <g transform="matrix(3.31352,0,0,3.57459,-3278.7,-5641.74)">
        <path d="M1059.31,1614.97C1058.22,1614.21 1057.37,1612.87 1055.62,1611.45C1053.99,1610.13 1051.88,1609.32 1050.04,1608.4C1049.97,1608.37 1049.88,1608.39 1049.84,1608.46C1049.8,1608.53 1049.83,1608.61 1049.9,1608.65C1051.72,1609.56 1053.81,1610.35 1055.42,1611.66C1057.18,1613.08 1058.03,1614.43 1059.13,1615.19C1059.19,1615.24 1059.29,1615.23 1059.34,1615.17C1059.39,1615.11 1059.38,1615.02 1059.31,1614.97Z" style="fill:rgb(240,190,166);"/>
    </g>
    <g transform="matrix(3.31352,0,0,3.57459,-3278.7,-5641.74)">
        <path d="M1042.56,1611.55C1042.56,1611.23 1042.27,1610.08 1042.24,1609.27C1042.23,1609.08 1042.24,1608.91 1042.27,1608.78C1042.29,1608.71 1042.31,1608.66 1042.35,1608.62C1042.71,1608.26 1043.08,1607.51 1043.38,1606.9C1043.76,1606.15 1044.9,1605.3 1046.13,1604.62C1047.36,1603.95 1048.69,1603.45 1049.47,1603.45C1049.55,1603.45 1049.62,1603.39 1049.62,1603.31C1049.62,1603.24 1049.55,1603.17 1049.47,1603.17C1048.66,1603.17 1047.26,1603.68 1045.97,1604.38C1044.68,1605.09 1043.5,1606 1043.11,1606.79C1042.82,1607.37 1042.47,1608.09 1042.13,1608.43C1042.06,1608.5 1042.01,1608.59 1041.98,1608.71C1041.94,1608.87 1041.93,1609.06 1041.94,1609.28C1041.97,1610.09 1042.26,1611.23 1042.26,1611.55C1042.26,1611.63 1042.32,1611.69 1042.41,1611.69C1042.49,1611.69 1042.56,1611.63 1042.56,1611.55Z" style="fill:rgb(240,190,166);"/>
    </g>
</svg>
