<?xml version="1.0" encoding="UTF-8" standalone="no"?>
<!DOCTYPE svg PUBLIC "-//W3C//DTD SVG 1.1//EN" "http://www.w3.org/Graphics/SVG/1.1/DTD/svg11.dtd">
<svg width="100%" height="100%" viewBox="0 0 270 223" version="1.1" xmlns="http://www.w3.org/2000/svg" xmlns:xlink="http://www.w3.org/1999/xlink" xml:space="preserve" xmlns:serif="http://www.serif.com/" style="fill-rule:evenodd;clip-rule:evenodd;stroke-linejoin:round;stroke-miterlimit:2;">
    <g id="Watering-Can" serif:id="Watering Can" transform="matrix(1,0,0,1,-1224.7,-1829.27)">
        <path id="Handle" d="M1229.56,1953.16C1229.56,1953.16 1230.58,1944.59 1230.61,1942.13C1230.64,1939.66 1231.02,1932.24 1230.86,1930.18C1230.71,1928.12 1230.55,1915.14 1229.56,1911.53C1228.58,1907.91 1226.39,1889.23 1225.38,1881.56C1224.36,1873.89 1225.53,1859.72 1227.39,1854.14C1229.25,1848.57 1234.59,1842.06 1240.86,1837.41C1247.14,1832.76 1254.34,1829.04 1261.55,1829.28C1268.75,1829.51 1276.42,1834.39 1280.37,1837.41C1284.32,1840.43 1289.67,1852.28 1290.36,1856.23C1291.06,1860.18 1293.38,1866.69 1293.38,1866.69L1290.36,1871.24C1290.36,1871.24 1281.54,1843.44 1271.64,1840.02C1261.74,1836.59 1258.31,1833.66 1250.79,1837.41C1243.27,1841.16 1239.28,1848.11 1236.8,1851.54C1234.33,1854.96 1230.8,1862.81 1230.61,1866.69C1230.42,1870.57 1230.42,1880.57 1230.61,1882.66C1230.8,1884.76 1232.61,1900.27 1233.56,1903.6C1234.52,1906.93 1234.88,1916.72 1235.25,1921.55C1235.62,1926.39 1235.25,1946.65 1235.25,1946.65L1229.56,1953.16" style="fill:rgb(146,148,180);"/>
        <path id="Watering-Can1" serif:id="Watering Can" d="M1224.7,1958.2L1299.03,1859C1299.03,1859 1336.83,1879.28 1339.33,1881.18C1341.82,1883.09 1366.57,1897.72 1367.64,1898.91C1368.71,1900.1 1373.83,1902.96 1374.9,1904.39C1375.97,1905.81 1380.97,1909.03 1380.02,1910.69C1379.07,1912.36 1360.5,1951.38 1360.5,1951.38C1360.5,1951.38 1357.53,1955.91 1357.29,1957.22C1357.05,1958.52 1355.86,1961.86 1355.86,1961.86C1355.86,1961.86 1370.26,1958.64 1378.23,1957.22C1386.2,1955.79 1397.63,1953.65 1400.36,1952.46C1403.1,1951.27 1414.17,1950.31 1415.95,1948.53C1417.74,1946.74 1420.83,1938.3 1422.5,1937.46C1424.16,1936.63 1429.4,1935.8 1431.3,1937.46C1433.2,1939.13 1438.08,1945.67 1438.68,1948.53C1439.27,1951.38 1441.89,1963.4 1439.87,1966.02C1437.84,1968.64 1438.8,1970.42 1435.94,1970.54C1433.09,1970.66 1427.02,1966.85 1424.52,1966.02C1422.02,1965.19 1417.26,1966.85 1413.21,1968.64C1409.17,1970.42 1387.74,1978.6 1386.58,1978.97C1385.42,1979.34 1339.33,1996.9 1339.33,1996.9L1328.01,2019.95C1328.01,2019.95 1286.55,2014.19 1267.59,1998.94C1248.62,1983.7 1240.33,1977.97 1237.57,1974.92C1234.81,1971.88 1224.7,1958.2 1224.7,1958.2Z" style="fill:rgb(146,148,180);"/>
        <path id="Water" d="M1454.1,1983.94C1461.02,1983.97 1468.45,1983.9 1474.58,1987.59C1476.25,1988.59 1478.15,1989.97 1479.08,1991.79C1480.49,1994.54 1479.91,1999.83 1476.93,2001.3C1475.6,2001.95 1472.21,2002.26 1471.25,2002.31C1470.26,2002.36 1468.4,2002.11 1467.52,2001.56C1464.46,1999.63 1464.12,1995.67 1462.51,1992.78C1460.63,1989.41 1457.87,1985.5 1454.1,1983.94Z" style="fill:rgb(108,167,194);"/>
        <g id="Water1" serif:id="Water" transform="matrix(0.636454,0.771315,-0.771315,0.636454,2050.65,-362.27)">
            <path d="M1454.1,1983.94C1461.02,1983.97 1468.45,1983.9 1474.58,1987.59C1476.25,1988.59 1478.15,1989.97 1479.08,1991.79C1480.49,1994.54 1479.91,1999.83 1476.93,2001.3C1475.6,2001.95 1472.21,2002.26 1471.25,2002.31C1470.26,2002.36 1468.4,2002.11 1467.52,2001.56C1464.46,1999.63 1464.12,1995.67 1462.51,1992.78C1460.63,1989.41 1457.87,1985.5 1454.1,1983.94Z" style="fill:rgb(108,167,194);"/>
        </g>
        <g id="Water2" serif:id="Water" transform="matrix(0.87484,0.484411,-0.484411,0.87484,1165.13,-414.904)">
            <path d="M1454.1,1983.94C1461.02,1983.97 1468.45,1983.9 1474.58,1987.59C1476.25,1988.59 1478.15,1989.97 1479.08,1991.79C1480.49,1994.54 1479.91,1999.83 1476.93,2001.3C1475.6,2001.95 1472.21,2002.26 1471.25,2002.31C1470.26,2002.36 1468.4,2002.11 1467.52,2001.56C1464.46,1999.63 1464.12,1995.67 1462.51,1992.78C1460.63,1989.41 1457.87,1985.5 1454.1,1983.94Z" style="fill:rgb(108,167,194);"/>
        </g>
    </g>
</svg>
