<?xml version="1.0" encoding="UTF-8" standalone="no"?>
<!DOCTYPE svg PUBLIC "-//W3C//DTD SVG 1.1//EN" "http://www.w3.org/Graphics/SVG/1.1/DTD/svg11.dtd">
<svg width="100%" height="100%" viewBox="0 0 436 1102" version="1.1" xmlns="http://www.w3.org/2000/svg" xmlns:xlink="http://www.w3.org/1999/xlink" xml:space="preserve" xmlns:serif="http://www.serif.com/" style="fill-rule:evenodd;clip-rule:evenodd;stroke-linecap:round;stroke-linejoin:round;stroke-miterlimit:1.5;">
    <g id="Cactus-3" serif:id="Cactus 3" transform="matrix(1,0,0,1,-991.529,-1060.44)">
        <g transform="matrix(4.13292,0,0,4.13292,-3101.73,-5025.87)">
            <path d="M1000.49,1514.74L1002.56,1523.01" style="fill:none;stroke:rgb(240,190,166);stroke-width:0.6px;"/>
        </g>
        <g transform="matrix(4.13292,0,0,4.13292,-3101.73,-5025.87)">
            <path d="M1021.04,1668.42L1020.79,1628.92L1020.79,1597.24C1020.79,1597.24 1000.04,1592.6 994.928,1578.62C989.817,1564.63 989.817,1564.36 991.162,1550.64C992.507,1536.92 992.217,1534.29 992.499,1528.02C992.781,1521.74 993.268,1515.11 994.928,1511.16C996.589,1507.21 998.211,1503.83 1001.03,1503.19C1003.85,1502.56 1005.69,1502.63 1007.59,1504.11C1009.49,1505.59 1010.69,1506.02 1011.96,1508.98C1013.23,1511.94 1013.09,1510.53 1013.37,1516.1C1013.65,1521.67 1013.87,1528.37 1013.37,1532.18C1012.88,1535.99 1013.37,1551.5 1013.37,1551.5C1013.37,1551.5 1013.16,1561.65 1014.92,1564.97C1016.69,1568.28 1018.17,1571.67 1019.23,1571.81C1020.28,1571.95 1019.86,1552.28 1019.79,1547.13C1019.72,1541.98 1019.99,1515.14 1020.79,1510.28C1021.6,1505.41 1021.95,1499.14 1022.87,1495.4C1023.78,1491.66 1025.4,1482.28 1029,1478.55C1032.6,1474.81 1033.3,1474.45 1035.84,1473.26C1038.38,1472.06 1047.62,1472.69 1050.09,1474.45C1052.55,1476.22 1058.97,1484.96 1061.09,1490.18C1063.2,1495.4 1066.16,1505.41 1066.52,1509.71C1066.87,1514.02 1067.57,1524.45 1067.64,1526.5C1067.71,1528.54 1067.04,1546 1066.52,1550.64C1065.99,1555.27 1065.22,1571.81 1065.22,1571.81C1065.22,1571.81 1071.09,1562.62 1071.99,1555.85C1072.89,1549.08 1073.17,1542.76 1073.23,1541.18C1073.29,1539.61 1073.17,1526.07 1073.23,1524.49C1073.29,1522.91 1073.17,1515.29 1073.23,1512.07C1073.29,1508.86 1073.63,1500.79 1076.73,1498.48C1079.83,1496.16 1081.13,1496.11 1083.22,1496.11C1085.3,1496.11 1088.58,1497.86 1090.21,1499.94C1091.85,1502.03 1093.82,1507.67 1094.5,1512.07C1095.18,1516.47 1095.74,1528.47 1095.68,1532.18C1095.63,1535.88 1095.85,1557.04 1095.68,1559.24C1095.52,1561.44 1096.03,1579.67 1091.23,1585.48C1086.44,1591.29 1081.81,1594.11 1079.5,1594.85C1077.19,1595.58 1063.31,1596.71 1062.8,1596.71C1062.29,1596.71 1061.08,1626.17 1061.09,1629.66C1061.1,1633.16 1060.96,1644.5 1061.09,1645.63C1061.21,1646.76 1061.09,1667 1061.09,1667L1061.09,1678.59L1020.79,1680.14L1021.04,1668.42Z" style="fill:rgb(94,135,93);"/>
        </g>
        <g transform="matrix(4.13292,0,0,4.13292,-3101.73,-5025.87)">
            <path d="M1034.58,1486.68L1037.51,1492.53" style="fill:none;stroke:rgb(240,190,166);stroke-width:0.6px;"/>
        </g>
        <g transform="matrix(4.13292,0,0,4.13292,-3101.73,-5025.87)">
            <path d="M1055.33,1491.15L1052.57,1495.55" style="fill:none;stroke:rgb(240,190,166);stroke-width:0.6px;"/>
        </g>
        <g transform="matrix(4.13292,0,0,4.13292,-3101.73,-5025.87)">
            <path d="M1034.28,1508.01L1035.93,1511.97" style="fill:none;stroke:rgb(240,190,166);stroke-width:0.6px;"/>
        </g>
        <g transform="matrix(4.13292,0,0,4.13292,-3101.73,-5025.87)">
            <path d="M1058.19,1517.92L1053.89,1523.1" style="fill:none;stroke:rgb(240,190,166);stroke-width:0.6px;"/>
        </g>
        <g transform="matrix(4.13292,0,0,4.13292,-3101.73,-5025.87)">
            <path d="M1027.78,1525.41L1030.75,1531.59" style="fill:none;stroke:rgb(240,190,166);stroke-width:0.6px;"/>
        </g>
        <g transform="matrix(4.13292,0,0,4.13292,-3101.73,-5025.87)">
            <path d="M1083.53,1510.87L1083.53,1515.94" style="fill:none;stroke:rgb(240,190,166);stroke-width:0.6px;"/>
        </g>
        <g transform="matrix(4.13292,0,0,4.13292,-3101.73,-5025.87)">
            <path d="M1091.03,1521.67L1086.51,1525.75" style="fill:none;stroke:rgb(240,190,166);stroke-width:0.6px;"/>
        </g>
        <g transform="matrix(4.13292,0,0,4.13292,-3101.73,-5025.87)">
            <path d="M1077.36,1520.9L1077.91,1523.87" style="fill:none;stroke:rgb(240,190,166);stroke-width:0.6px;"/>
        </g>
        <g transform="matrix(4.13292,0,0,4.13292,-3101.73,-5025.87)">
            <path d="M1093.23,1534.89L1088.38,1539.3" style="fill:none;stroke:rgb(240,190,166);stroke-width:0.6px;"/>
        </g>
        <g transform="matrix(4.13292,0,0,4.13292,-3101.73,-5025.87)">
            <path d="M1076.81,1530.92L1080.34,1536.1" style="fill:none;stroke:rgb(240,190,166);stroke-width:0.6px;"/>
        </g>
        <g transform="matrix(4.13292,0,0,4.13292,-3101.73,-5025.87)">
            <path d="M1076.26,1545.47L1077.47,1549.66" style="fill:none;stroke:rgb(240,190,166);stroke-width:0.6px;"/>
        </g>
        <g transform="matrix(4.13292,0,0,4.13292,-3101.73,-5025.87)">
            <path d="M1091.36,1544.59L1086.62,1550.21" style="fill:none;stroke:rgb(240,190,166);stroke-width:0.6px;"/>
        </g>
        <g transform="matrix(4.13292,0,0,4.13292,-3101.73,-5025.87)">
            <path d="M1083.64,1542.71L1082.98,1546.68" style="fill:none;stroke:rgb(240,190,166);stroke-width:0.6px;"/>
        </g>
        <g transform="matrix(4.13292,0,0,4.13292,-3101.73,-5025.87)">
            <path d="M1075.6,1555.06L1077.47,1558.03" style="fill:none;stroke:rgb(240,190,166);stroke-width:0.6px;"/>
        </g>
        <g transform="matrix(4.13292,0,0,4.13292,-3101.73,-5025.87)">
            <path d="M1090.14,1556.6L1087.5,1560.34" style="fill:none;stroke:rgb(240,190,166);stroke-width:0.6px;"/>
        </g>
        <g transform="matrix(4.13292,0,0,4.13292,-3101.73,-5025.87)">
            <path d="M1073.29,1565.3L1075.71,1567.62" style="fill:none;stroke:rgb(240,190,166);stroke-width:0.6px;"/>
        </g>
        <g transform="matrix(4.13292,0,0,4.13292,-3101.73,-5025.87)">
            <path d="M1082.76,1565.74L1077.91,1570.26" style="fill:none;stroke:rgb(240,190,166);stroke-width:0.6px;"/>
        </g>
        <g transform="matrix(4.13292,0,0,4.13292,-3101.73,-5025.87)">
            <path d="M1089.92,1575.55L1086.51,1572.13" style="fill:none;stroke:rgb(240,190,166);stroke-width:0.6px;"/>
        </g>
        <g transform="matrix(4.13292,0,0,4.13292,-3101.73,-5025.87)">
            <path d="M1079.68,1581.83L1079.35,1574.78" style="fill:none;stroke:rgb(240,190,166);stroke-width:0.6px;"/>
        </g>
        <g transform="matrix(4.13292,0,0,4.13292,-3101.73,-5025.87)">
            <path d="M1076.15,1588.44L1071.08,1585.8" style="fill:none;stroke:rgb(240,190,166);stroke-width:0.6px;"/>
        </g>
        <g transform="matrix(4.13292,0,0,4.13292,-3101.73,-5025.87)">
            <path d="M1069.43,1571.36L1069.1,1576.54" style="fill:none;stroke:rgb(240,190,166);stroke-width:0.6px;"/>
        </g>
        <g transform="matrix(4.13292,0,0,4.13292,-3101.73,-5025.87)">
            <path d="M996.155,1526.96L999.57,1529.27" style="fill:none;stroke:rgb(240,190,166);stroke-width:0.6px;"/>
        </g>
        <g transform="matrix(4.13292,0,0,4.13292,-3101.73,-5025.87)">
            <path d="M1010.81,1524.2L1005.3,1528.39" style="fill:none;stroke:rgb(240,190,166);stroke-width:0.6px;"/>
        </g>
        <g transform="matrix(4.13292,0,0,4.13292,-3101.73,-5025.87)">
            <path d="M995.383,1536.87L1002.88,1539.08" style="fill:none;stroke:rgb(240,190,166);stroke-width:0.6px;"/>
        </g>
        <g transform="matrix(4.13292,0,0,4.13292,-3101.73,-5025.87)">
            <path d="M1010.26,1539.63L1004.86,1544.15" style="fill:none;stroke:rgb(240,190,166);stroke-width:0.6px;"/>
        </g>
        <g transform="matrix(4.13292,0,0,4.13292,-3101.73,-5025.87)">
            <path d="M998.358,1551.31L1000.78,1554.28" style="fill:none;stroke:rgb(240,190,166);stroke-width:0.6px;"/>
        </g>
        <g transform="matrix(4.13292,0,0,4.13292,-3101.73,-5025.87)">
            <path d="M1009.16,1553.95L1006.51,1558.8" style="fill:none;stroke:rgb(240,190,166);stroke-width:0.6px;"/>
        </g>
        <g transform="matrix(4.13292,0,0,4.13292,-3101.73,-5025.87)">
            <path d="M994.281,1557.26L997.146,1560.23" style="fill:none;stroke:rgb(240,190,166);stroke-width:0.6px;"/>
        </g>
        <g transform="matrix(4.13292,0,0,4.13292,-3101.73,-5025.87)">
            <path d="M1044.2,1526.63L1041.55,1532.36" style="fill:none;stroke:rgb(240,190,166);stroke-width:0.6px;"/>
        </g>
        <g transform="matrix(4.13292,0,0,4.13292,-3101.73,-5025.87)">
            <path d="M1053.12,1530.92L1056.76,1535" style="fill:none;stroke:rgb(240,190,166);stroke-width:0.6px;"/>
        </g>
        <g transform="matrix(4.13292,0,0,4.13292,-3101.73,-5025.87)">
            <path d="M1025.9,1538.97L1028.44,1542.93" style="fill:none;stroke:rgb(240,190,166);stroke-width:0.6px;"/>
        </g>
        <g transform="matrix(4.13292,0,0,4.13292,-3101.73,-5025.87)">
            <path d="M1040.89,1542.6L1035.6,1547.56" style="fill:none;stroke:rgb(240,190,166);stroke-width:0.6px;"/>
        </g>
        <g transform="matrix(4.13292,0,0,4.13292,-3101.73,-5025.87)">
            <path d="M1051.39,1540.79L1054.19,1545.95" style="fill:none;stroke:rgb(240,190,166);stroke-width:0.6px;"/>
        </g>
        <g transform="matrix(4.13292,0,0,4.13292,-3101.73,-5025.87)">
            <path d="M1043,1549.18L1041.49,1556.5" style="fill:none;stroke:rgb(240,190,166);stroke-width:0.6px;"/>
        </g>
        <g transform="matrix(4.13292,0,0,4.13292,-3101.73,-5025.87)">
            <path d="M1052.46,1553.27L1052.68,1556.5" style="fill:none;stroke:rgb(240,190,166);stroke-width:0.6px;"/>
        </g>
        <g transform="matrix(4.13292,0,0,4.13292,-3101.73,-5025.87)">
            <path d="M1023.63,1553.27L1023.84,1556.5" style="fill:none;stroke:rgb(240,190,166);stroke-width:0.6px;"/>
        </g>
        <g transform="matrix(4.13292,0,0,4.13292,-3101.73,-5025.87)">
            <path d="M1031.59,1556.5L1033.53,1561.88" style="fill:none;stroke:rgb(240,190,166);stroke-width:0.6px;"/>
        </g>
        <g transform="matrix(4.13292,0,0,4.13292,-3101.73,-5025.87)">
            <path d="M1002.32,1570.06L1006.2,1573.72" style="fill:none;stroke:rgb(240,190,166);stroke-width:0.6px;"/>
        </g>
        <g transform="matrix(4.13292,0,0,4.13292,-3101.73,-5025.87)">
            <path d="M996.511,1576.73L1002.32,1581.03" style="fill:none;stroke:rgb(240,190,166);stroke-width:0.6px;"/>
        </g>
        <g transform="matrix(4.13292,0,0,4.13292,-3101.73,-5025.87)">
            <path d="M1009.85,1566.83L1011.14,1574.15" style="fill:none;stroke:rgb(240,190,166);stroke-width:0.6px;"/>
        </g>
        <g transform="matrix(4.13292,0,0,4.13292,-3101.73,-5025.87)">
            <path d="M1030.3,1568.98L1030.08,1574.15" style="fill:none;stroke:rgb(240,190,166);stroke-width:0.6px;"/>
        </g>
        <g transform="matrix(4.13292,0,0,4.13292,-3101.73,-5025.87)">
            <path d="M1014.59,1580.82L1020.4,1583.83" style="fill:none;stroke:rgb(240,190,166);stroke-width:0.6px;"/>
        </g>
        <g transform="matrix(4.13292,0,0,4.13292,-3101.73,-5025.87)">
            <path d="M1048.16,1566.83L1046.65,1572.21" style="fill:none;stroke:rgb(240,190,166);stroke-width:0.6px;"/>
        </g>
        <g transform="matrix(4.13292,0,0,4.13292,-3101.73,-5025.87)">
            <path d="M1062.37,1566.83L1056.12,1574.58" style="fill:none;stroke:rgb(240,190,166);stroke-width:0.6px;"/>
        </g>
        <g transform="matrix(4.13292,0,0,4.13292,-3101.73,-5025.87)">
            <path d="M1037.18,1566.83L1038.05,1574.58" style="fill:none;stroke:rgb(240,190,166);stroke-width:0.6px;"/>
        </g>
        <g transform="matrix(4.13292,0,0,4.13292,-3101.73,-5025.87)">
            <path d="M1026.64,1582.76L1033.74,1588.78" style="fill:none;stroke:rgb(240,190,166);stroke-width:0.6px;"/>
        </g>
        <g transform="matrix(4.13292,0,0,4.13292,-3101.73,-5025.87)">
            <path d="M1049.02,1582.76L1046.22,1588.78" style="fill:none;stroke:rgb(240,190,166);stroke-width:0.6px;"/>
        </g>
        <g transform="matrix(4.13292,0,0,4.13292,-3101.73,-5025.87)">
            <path d="M1060,1582.76L1056.77,1590.5" style="fill:none;stroke:rgb(240,190,166);stroke-width:0.6px;"/>
        </g>
        <g transform="matrix(4.13292,0,0,4.13292,-3101.73,-5025.87)">
            <path d="M1034.17,1580.17L1038.91,1586.41" style="fill:none;stroke:rgb(240,190,166);stroke-width:0.6px;"/>
        </g>
        <g transform="matrix(4.13292,0,0,4.13292,-3101.73,-5025.87)">
            <path d="M1027.07,1596.74L1031.59,1602.12" style="fill:none;stroke:rgb(240,190,166);stroke-width:0.6px;"/>
        </g>
        <g transform="matrix(4.13292,0,0,4.13292,-3101.73,-5025.87)">
            <path d="M1049.02,1599.33L1041.92,1604.06" style="fill:none;stroke:rgb(240,190,166);stroke-width:0.6px;"/>
        </g>
        <g transform="matrix(4.13292,0,0,4.13292,-3101.73,-5025.87)">
            <path d="M1057.41,1599.33L1055.91,1606.43" style="fill:none;stroke:rgb(240,190,166);stroke-width:0.6px;"/>
        </g>
        <g transform="matrix(4.13292,0,0,4.13292,-3101.73,-5025.87)">
            <path d="M1038.05,1594.59L1036.97,1599.33" style="fill:none;stroke:rgb(240,190,166);stroke-width:0.6px;"/>
        </g>
        <g transform="matrix(4.13292,0,0,4.13292,-3101.73,-5025.87)">
            <path d="M1030.79,1616.01L1036.97,1624.94" style="fill:none;stroke:rgb(240,190,166);stroke-width:0.6px;"/>
        </g>
        <g transform="matrix(4.13292,0,0,4.13292,-3101.73,-5025.87)">
            <path d="M1056.01,1616.01L1049.7,1624.94" style="fill:none;stroke:rgb(240,190,166);stroke-width:0.6px;"/>
        </g>
        <g transform="matrix(4.13292,0,0,4.13292,-3101.73,-5025.87)">
            <path d="M1030.26,1635.45L1032.89,1647.53" style="fill:none;stroke:rgb(240,190,166);stroke-width:0.6px;"/>
        </g>
        <g transform="matrix(4.13292,0,0,4.13292,-3101.73,-5025.87)">
            <path d="M1051.8,1640.7L1047.6,1647.53" style="fill:none;stroke:rgb(240,190,166);stroke-width:0.6px;"/>
        </g>
        <g transform="matrix(4.13292,0,0,4.13292,-3101.73,-5025.87)">
            <path d="M1051.8,1661.19L1047.6,1667.5" style="fill:none;stroke:rgb(240,190,166);stroke-width:0.6px;"/>
        </g>
        <g transform="matrix(4.13292,0,0,4.13292,-3101.73,-5025.87)">
            <path d="M1047.6,1633.34L1039.19,1644.9" style="fill:none;stroke:rgb(240,190,166);stroke-width:0.6px;"/>
        </g>
        <g transform="matrix(4.13292,0,0,4.13292,-3101.73,-5025.87)">
            <path d="M1033.41,1658.56L1039.19,1651.73" style="fill:none;stroke:rgb(240,190,166);stroke-width:0.6px;"/>
        </g>
        <g transform="matrix(4.13292,0,0,4.13292,-3101.73,-5025.87)">
            <path d="M1028.16,1672.75L1033.41,1669.07" style="fill:none;stroke:rgb(240,190,166);stroke-width:0.6px;"/>
        </g>
        <g transform="matrix(4.13292,0,0,4.13292,-3101.73,-5025.87)">
            <path d="M1040.77,1672.75L1041.29,1663.29" style="fill:none;stroke:rgb(240,190,166);stroke-width:0.6px;"/>
        </g>
        <g transform="matrix(4.13292,0,0,4.13292,-3101.73,-5025.87)">
            <path d="M1024.48,1663.29L1026.06,1648.06" style="fill:none;stroke:rgb(240,190,166);stroke-width:0.6px;"/>
        </g>
        <g transform="matrix(4.13292,0,0,4.13292,-3101.73,-5025.87)">
            <path d="M1038.14,1630.72L1041.29,1622.31" style="fill:none;stroke:rgb(240,190,166);stroke-width:0.6px;"/>
        </g>
        <g transform="matrix(4.13292,0,0,4.13292,-3101.73,-5025.87)">
            <path d="M1041.29,1611.28L1046.55,1613.9" style="fill:none;stroke:rgb(240,190,166);stroke-width:0.6px;"/>
        </g>
        <g transform="matrix(4.13292,0,0,4.13292,-3101.73,-5025.87)">
            <path d="M1046.55,1509.35L1055.48,1503.57" style="fill:none;stroke:rgb(240,190,166);stroke-width:0.6px;"/>
        </g>
        <g transform="matrix(4.13292,0,0,4.13292,-3101.73,-5025.87)">
            <path d="M1031.84,1518.81L1046.55,1519.86" style="fill:none;stroke:rgb(240,190,166);stroke-width:0.6px;"/>
        </g>
        <g transform="matrix(4.13292,0,0,4.13292,-3094.13,-5093.73)">
            <path d="M1064.06,1667.18L1019.5,1669.28C1014.54,1669.09 1007.38,1668.87 1002.71,1670.95C994.157,1674.79 998.128,1685.28 999.366,1691.6C1001.19,1700.88 1002.99,1710.17 1004.95,1719.43C1006.49,1726.74 1008.11,1734.62 1012.09,1741.13C1018.14,1751.02 1031.05,1755.32 1042.02,1755.64C1049.07,1755.85 1057.76,1755.17 1064.31,1752.22C1073.35,1748.15 1075.29,1735.18 1077.51,1727.29C1079.53,1720.06 1081.53,1712.83 1083.38,1705.56C1086.38,1693.76 1087.61,1689.87 1087.03,1677.62C1086.9,1674.93 1085.07,1671.61 1082.55,1670.41C1079.72,1669.06 1076.64,1668.2 1073.55,1667.66C1070.43,1667.12 1067.22,1667.08 1064.06,1667.18" style="fill:rgb(111,172,200);"/>
        </g>
    </g>
</svg>
