<?xml version="1.0" encoding="UTF-8" standalone="no"?>
<!DOCTYPE svg PUBLIC "-//W3C//DTD SVG 1.1//EN" "http://www.w3.org/Graphics/SVG/1.1/DTD/svg11.dtd">
<svg width="100%" height="100%" viewBox="0 0 245 729" version="1.1" xmlns="http://www.w3.org/2000/svg" xmlns:xlink="http://www.w3.org/1999/xlink" xml:space="preserve" xmlns:serif="http://www.serif.com/" style="fill-rule:evenodd;clip-rule:evenodd;stroke-linecap:round;stroke-linejoin:round;stroke-miterlimit:1.5;">
    <g id="Cactus-2" serif:id="Cactus 2" transform="matrix(1,0,0,1,-655.773,-1437.3)">
        <g transform="matrix(2.72025,0,0,2.72025,-1446.82,-2532.59)">
            <ellipse cx="818.117" cy="1584.76" rx="35.465" ry="124.26" style="fill:rgb(149,181,148);"/>
        </g>
        <g transform="matrix(2.72025,0,0,2.72025,-2057.31,-2609.77)">
            <path d="M1064.06,1667.18L1019.5,1669.28C1014.54,1669.09 1007.38,1668.87 1002.71,1670.95C994.157,1674.79 998.128,1685.28 999.366,1691.6C1001.19,1700.88 1002.99,1710.17 1004.95,1719.43C1006.49,1726.74 1008.11,1734.62 1012.09,1741.13C1018.14,1751.02 1031.05,1755.32 1042.02,1755.64C1049.07,1755.85 1057.76,1755.17 1064.31,1752.22C1073.35,1748.15 1075.29,1735.18 1077.51,1727.29C1079.53,1720.06 1081.53,1712.83 1083.38,1705.56C1086.38,1693.76 1087.61,1689.87 1087.03,1677.62C1086.9,1674.93 1085.07,1671.61 1082.55,1670.41C1079.72,1669.06 1076.64,1668.2 1073.55,1667.66C1070.43,1667.12 1067.22,1667.08 1064.06,1667.18" style="fill:rgb(228,115,115);"/>
        </g>
        <g transform="matrix(2.72025,0,0,2.72025,-1425.38,-2614.06)">
            <path d="M792.682,1532.48C788.218,1528.02 780.35,1525.72 774.86,1522.06C772.764,1520.66 770.105,1520.33 768.471,1518.7" style="fill:none;"/>
        </g>
        <g transform="matrix(0.524898,-2.66913,2.66913,0.524898,-4111.01,3098.23)">
            <path d="M794.509,1637.09C786.972,1638.57 788.732,1651.75 788.732,1651.75C788.732,1651.75 782.82,1642.64 775.779,1645.7" style="fill:none;stroke:rgb(89,129,158);stroke-width:0.31px;"/>
        </g>
        <g transform="matrix(1.90726,1.93962,-1.93962,1.90726,2538.3,-2802.39)">
            <path d="M794.509,1637.09C786.972,1638.57 788.732,1651.75 788.732,1651.75C788.732,1651.75 782.82,1642.64 775.779,1645.7" style="fill:none;stroke:rgb(89,129,158);stroke-width:0.31px;"/>
        </g>
        <g transform="matrix(1.91121,-1.93572,1.93572,1.91121,-3993.92,183.235)">
            <path d="M794.509,1637.09C786.972,1638.57 788.732,1651.75 788.732,1651.75C788.732,1651.75 782.82,1642.64 775.779,1645.7" style="fill:none;stroke:rgb(89,129,158);stroke-width:0.31px;"/>
        </g>
        <g transform="matrix(2.72025,0,0,2.72025,-1378.08,-2614.06)">
            <path d="M794.509,1637.09C786.972,1638.57 788.732,1651.75 788.732,1651.75C788.732,1651.75 782.82,1642.64 775.779,1645.7" style="fill:none;stroke:rgb(89,129,158);stroke-width:0.31px;"/>
        </g>
        <g transform="matrix(2.6149,0.749715,-0.749715,2.6149,-15.2118,-3103.45)">
            <path d="M794.509,1637.09C786.972,1638.57 788.732,1651.75 788.732,1651.75C788.732,1651.75 782.82,1642.64 775.779,1645.7" style="fill:none;stroke:rgb(89,129,158);stroke-width:0.31px;"/>
        </g>
        <g transform="matrix(2.72025,0,0,2.72025,-1387.44,-2775.64)">
            <path d="M794.509,1637.09C786.972,1638.57 788.732,1651.75 788.732,1651.75C788.732,1651.75 782.82,1642.64 775.779,1645.7" style="fill:none;stroke:rgb(89,129,158);stroke-width:0.31px;"/>
        </g>
        <g transform="matrix(0.800577,2.59978,-2.59978,0.800577,4507.3,-1702.24)">
            <path d="M794.509,1637.09C786.972,1638.57 788.732,1651.75 788.732,1651.75C788.732,1651.75 782.82,1642.64 775.779,1645.7" style="fill:none;stroke:rgb(89,129,158);stroke-width:0.31px;"/>
        </g>
        <g transform="matrix(2.72025,0,0,2.72025,-1332.18,-2766.27)">
            <path d="M794.509,1637.09C786.972,1638.57 788.732,1651.75 788.732,1651.75C788.732,1651.75 782.82,1642.64 775.779,1645.7" style="fill:none;stroke:rgb(89,129,158);stroke-width:0.31px;"/>
        </g>
        <g transform="matrix(2.72025,0,0,2.72025,-1377.14,-2845.89)">
            <path d="M794.509,1637.09C786.972,1638.57 788.732,1651.75 788.732,1651.75C788.732,1651.75 782.82,1642.64 775.779,1645.7" style="fill:none;stroke:rgb(89,129,158);stroke-width:0.31px;"/>
        </g>
        <g transform="matrix(2.09612,1.73379,-1.73379,2.09612,2011.27,-3163.98)">
            <path d="M794.509,1637.09C786.972,1638.57 788.732,1651.75 788.732,1651.75C788.732,1651.75 782.82,1642.64 775.779,1645.7" style="fill:none;stroke:rgb(89,129,158);stroke-width:0.31px;"/>
        </g>
        <g transform="matrix(2.72025,0,0,2.72025,-1373.39,-3015.56)">
            <path d="M794.509,1637.09C786.972,1638.57 788.732,1651.75 788.732,1651.75C788.732,1651.75 782.82,1642.64 775.779,1645.7" style="fill:none;stroke:rgb(89,129,158);stroke-width:0.31px;"/>
        </g>
        <g transform="matrix(1.51249,2.261,-2.261,1.51249,3358.01,-2768.05)">
            <path d="M794.509,1637.09C786.972,1638.57 788.732,1651.75 788.732,1651.75C788.732,1651.75 782.82,1642.64 775.779,1645.7" style="fill:none;stroke:rgb(89,129,158);stroke-width:0.31px;"/>
        </g>
        <g transform="matrix(1.51803,-2.25729,2.25729,1.51803,-4186.83,814.844)">
            <path d="M794.509,1637.09C786.972,1638.57 788.732,1651.75 788.732,1651.75C788.732,1651.75 782.82,1642.64 775.779,1645.7" style="fill:none;stroke:rgb(89,129,158);stroke-width:0.31px;"/>
        </g>
        <g transform="matrix(0.0793943,2.71909,-2.71909,0.0793943,5275.36,-667.131)">
            <path d="M794.509,1637.09C786.972,1638.57 788.732,1651.75 788.732,1651.75C788.732,1651.75 782.82,1642.64 775.779,1645.7" style="fill:none;stroke:rgb(89,129,158);stroke-width:0.31px;"/>
        </g>
        <g transform="matrix(2.71069,0.227923,-0.227923,2.71069,-981.247,-3065.31)">
            <path d="M794.509,1637.09C786.972,1638.57 788.732,1651.75 788.732,1651.75C788.732,1651.75 782.82,1642.64 775.779,1645.7" style="fill:none;stroke:rgb(89,129,158);stroke-width:0.31px;"/>
        </g>
        <g transform="matrix(2.70509,0.286841,-0.286841,2.70509,-869.661,-3160.44)">
            <path d="M794.509,1637.09C786.972,1638.57 788.732,1651.75 788.732,1651.75C788.732,1651.75 782.82,1642.64 775.779,1645.7" style="fill:none;stroke:rgb(89,129,158);stroke-width:0.31px;"/>
        </g>
        <g transform="matrix(2.32098,1.41873,-1.41873,2.32098,1339.11,-3358.97)">
            <path d="M794.509,1637.09C786.972,1638.57 788.732,1651.75 788.732,1651.75C788.732,1651.75 782.82,1642.64 775.779,1645.7" style="fill:none;stroke:rgb(89,129,158);stroke-width:0.31px;"/>
        </g>
        <g transform="matrix(2.43772,1.20719,-1.20719,2.43772,815.757,-3195.16)">
            <path d="M794.509,1637.09C786.972,1638.57 788.732,1651.75 788.732,1651.75C788.732,1651.75 782.82,1642.64 775.779,1645.7" style="fill:none;stroke:rgb(89,129,158);stroke-width:0.31px;"/>
        </g>
        <g transform="matrix(-0.271769,2.70664,-2.70664,-0.271769,5535.75,120.552)">
            <path d="M794.509,1637.09C786.972,1638.57 788.732,1651.75 788.732,1651.75C788.732,1651.75 782.82,1642.64 775.779,1645.7" style="fill:none;stroke:rgb(89,129,158);stroke-width:0.31px;"/>
        </g>
        <g transform="matrix(1.04942,-2.50968,2.50968,1.04942,-4250.8,1990.6)">
            <path d="M794.509,1637.09C786.972,1638.57 788.732,1651.75 788.732,1651.75C788.732,1651.75 782.82,1642.64 775.779,1645.7" style="fill:none;stroke:rgb(89,129,158);stroke-width:0.31px;"/>
        </g>
        <g transform="matrix(1.07342,-2.49951,2.49951,1.07342,-4263.69,1870.1)">
            <path d="M794.509,1637.09C786.972,1638.57 788.732,1651.75 788.732,1651.75C788.732,1651.75 782.82,1642.64 775.779,1645.7" style="fill:none;stroke:rgb(89,129,158);stroke-width:0.31px;"/>
        </g>
        <g transform="matrix(1.68837,-2.13288,2.13288,1.68837,-4134.26,508.242)">
            <path d="M794.509,1637.09C786.972,1638.57 788.732,1651.75 788.732,1651.75C788.732,1651.75 782.82,1642.64 775.779,1645.7" style="fill:none;stroke:rgb(89,129,158);stroke-width:0.31px;"/>
        </g>
        <g transform="matrix(1.01075,2.5255,-2.5255,1.01075,4225.76,-1918.35)">
            <path d="M794.509,1637.09C786.972,1638.57 788.732,1651.75 788.732,1651.75C788.732,1651.75 782.82,1642.64 775.779,1645.7" style="fill:none;stroke:rgb(89,129,158);stroke-width:0.31px;"/>
        </g>
        <g transform="matrix(2.56431,-0.907787,0.907787,2.56431,-2700.3,-1609.88)">
            <path d="M794.509,1637.09C786.972,1638.57 788.732,1651.75 788.732,1651.75C788.732,1651.75 782.82,1642.64 775.779,1645.7" style="fill:none;stroke:rgb(89,129,158);stroke-width:0.31px;"/>
        </g>
        <g transform="matrix(2.67369,0.501129,-0.501129,2.67369,-539.585,-2889.51)">
            <path d="M794.509,1637.09C786.972,1638.57 788.732,1651.75 788.732,1651.75C788.732,1651.75 782.82,1642.64 775.779,1645.7" style="fill:none;stroke:rgb(89,129,158);stroke-width:0.31px;"/>
        </g>
    </g>
</svg>
