<?xml version="1.0" encoding="UTF-8" standalone="no"?>
<!DOCTYPE svg PUBLIC "-//W3C//DTD SVG 1.1//EN" "http://www.w3.org/Graphics/SVG/1.1/DTD/svg11.dtd">
<svg width="100%" height="100%" viewBox="0 0 222 471" version="1.1" xmlns="http://www.w3.org/2000/svg" xmlns:xlink="http://www.w3.org/1999/xlink" xml:space="preserve" xmlns:serif="http://www.serif.com/" style="fill-rule:evenodd;clip-rule:evenodd;stroke-linejoin:round;stroke-miterlimit:2;">
    <g id="Layer1" transform="matrix(1,0,0,1,-266.061,-1100.06)">
        <path d="M364.41,1133.64L377.18,1131.03C377.18,1131.03 384.726,1142.93 387.339,1149.03C389.951,1155.12 392.853,1166.44 392.853,1170.21C392.853,1173.99 396.626,1187.63 397.207,1200.98C397.787,1214.33 398.077,1220.71 397.207,1229.71C396.336,1238.71 397.207,1266.57 397.207,1277.89C397.207,1289.21 398.077,1305.46 397.207,1319.1C396.336,1332.75 397.787,1342.03 397.207,1355.67C396.626,1369.32 399.238,1387.02 397.207,1392.82C395.175,1398.63 397.207,1416.33 397.207,1416.33L387.339,1416.33C387.339,1416.33 378.632,1377.44 377.18,1363.22C375.729,1349 368.183,1308.08 367.603,1298.21C367.022,1288.34 364.99,1255.54 364.41,1245.96C363.829,1236.39 359.476,1146.7 364.41,1133.64Z" style="fill:rgb(84,148,125);"/>
        <path d="M299.891,1100.06C299.891,1100.06 317.909,1121.05 319.766,1142.79C321.624,1164.52 329.982,1188.85 332.583,1197.58C335.184,1206.31 339.819,1243.89 345.623,1252.96C351.428,1262.03 389.522,1413.31 389.522,1413.31L420.359,1413.31C420.359,1413.31 375.735,1230.46 367.028,1209.06C358.321,1187.65 351.428,1164.07 345.623,1150.65C339.819,1137.23 333.288,1127.07 325.307,1117.27C317.325,1107.48 299.891,1100.06 299.891,1100.06Z" style="fill:rgb(148,206,185);"/>
        <path d="M369.259,1411.47C369.259,1411.47 368.44,1405.93 353.579,1399.39C338.719,1392.85 339.165,1391.51 335.896,1389.58C332.627,1387.65 326.088,1381.71 324.008,1379.18C321.927,1376.65 316.875,1372.49 313.16,1368.04C309.445,1363.58 305.433,1358.23 304.541,1354.66C303.649,1351.1 301.123,1347.53 299.34,1345.6C297.557,1343.66 291.553,1338.58 289.294,1333.35C287.036,1328.12 280.616,1320.63 279.071,1319.2C277.525,1317.78 271.7,1311.62 270.969,1310.84C270.239,1310.06 269.849,1309.42 269.557,1308.79C269.265,1308.16 268.535,1305.19 268.243,1304.99C267.95,1304.8 270.58,1307.04 271.797,1307.53C273.015,1308.01 277.494,1313.32 278.371,1314.29C279.247,1315.27 282.169,1318.18 282.997,1319.2C283.825,1320.23 290.801,1329.1 292.108,1329.81C293.416,1330.52 296.507,1334.68 300.668,1336.11C304.829,1337.54 308.395,1340.15 310.059,1340.75C311.724,1341.34 317.192,1344.62 319.926,1345.6C322.661,1346.57 331.292,1351.39 332.655,1351.59C334.019,1351.78 340.933,1353.69 342.248,1354.66C343.563,1355.63 348.538,1362.7 349.39,1364.28C350.242,1365.87 351.825,1370.07 352.738,1371.53C353.651,1372.99 357.12,1378.07 357.911,1379.18C358.703,1380.29 363.876,1388.14 364.546,1388.75C365.215,1389.36 368.676,1395.63 369.259,1396.73C369.841,1397.82 371.302,1400.38 371.667,1400.93C372.033,1401.47 374.102,1403.97 374.589,1404.64C375.076,1405.31 377.693,1408.72 378.18,1409.08C378.667,1409.45 379.337,1410.66 379.337,1410.66L369.259,1411.47Z" style="fill:rgb(208,234,197);"/>
        <path d="M307.206,1215.09C307.206,1215.09 302.127,1227.78 302.852,1240.48C303.578,1253.18 305.029,1269.14 307.206,1278.94C309.383,1288.73 311.197,1304.33 314.099,1313.04C317.001,1321.75 318.453,1329.37 324.257,1338.43C330.062,1347.51 334.416,1354.76 340.946,1360.93C347.476,1367.1 353.644,1369.27 359.086,1372.9C364.528,1376.53 372.509,1379.43 379.039,1384.15C385.57,1388.86 391.012,1392.49 393.914,1397.93C396.816,1403.38 398.63,1405.91 400.444,1412.81C402.258,1419.7 411.691,1420.06 411.691,1420.06L422.212,1420.06C422.212,1420.06 421.849,1403.38 417.133,1397.93C412.417,1392.49 404.435,1381.61 400.444,1378.71C396.454,1375.8 384.673,1362.59 381.85,1359.62C379.026,1356.65 370.853,1351.6 368.475,1348.18C366.098,1344.76 362.977,1342.21 361.937,1338.43C360.897,1334.66 357.019,1321.19 356.09,1316.54C355.162,1311.9 354.971,1296.92 353.783,1291.28C352.594,1285.63 350.811,1276.27 349.77,1274.18C348.73,1272.11 346.501,1266.01 344.272,1263.04C342.043,1260.07 338.477,1253.68 336.545,1251.15C334.613,1248.63 329.115,1238.08 327.48,1235.7C325.846,1233.32 311.153,1216.61 307.206,1215.09Z" style="fill:rgb(84,148,125);"/>
        <path d="M448.906,1144.12C448.906,1144.12 449.196,1149.93 443.682,1165.89C438.167,1181.85 434.684,1191.14 430.621,1200.72C426.558,1210.3 420.172,1226.26 417.851,1235.84C415.529,1245.41 387.956,1416.07 387.666,1416.36C387.376,1416.65 408.273,1416.36 408.273,1416.36C408.273,1416.36 456.742,1168.21 448.906,1144.12Z" style="fill:rgb(84,148,125);"/>
        <path d="M383.146,1411.59C383.146,1411.59 382.051,1407.03 381.503,1405.87C380.955,1404.71 377.79,1397.9 377.12,1396.62C376.451,1395.34 371.709,1383.97 370.309,1381.29C368.909,1378.61 365.622,1373.13 364.648,1371.37C363.674,1369.6 360.57,1363.7 359.84,1362.67C359.109,1361.63 355.877,1357.56 354.66,1356.04C353.442,1354.52 351.312,1351.55 350.399,1350.18C349.486,1348.81 343.092,1338.53 340.962,1336.09C338.831,1333.66 333.353,1327.8 331.375,1325.59C329.397,1323.39 316.325,1309.26 307.223,1294.59C298.121,1279.92 284.561,1256.14 278.988,1235.52C273.416,1214.9 269.801,1209.67 268.218,1201.58C266.636,1193.48 266.149,1190.56 266.088,1188.73C266.027,1186.91 266.149,1182.89 266.088,1181.55C266.027,1180.21 266.088,1178.81 266.088,1178.81C266.088,1178.81 277.714,1194.15 279.6,1195.49C281.487,1196.83 289.4,1204.56 292.017,1207.85C294.635,1211.13 310.045,1227.14 311.472,1228.33C312.898,1229.52 321.204,1239 322.482,1240.28C323.76,1241.55 327.838,1246.61 328.934,1247.76C330.029,1248.92 337.329,1258.8 337.876,1259.47C338.424,1260.14 344.389,1267.26 345.059,1268.23C345.728,1269.2 350.902,1277.24 351.571,1278.34C352.241,1279.43 357.354,1289.05 357.719,1289.9C358.084,1290.75 363.71,1303.44 364.648,1306.12C365.586,1308.8 370.903,1324.16 372.389,1327.58C373.875,1331 378.333,1344.38 379.671,1347.64C381.008,1350.91 383.832,1361.61 385.466,1364.73C387.101,1367.85 389.924,1379.89 391.113,1383.9C392.302,1387.91 394.86,1397.63 395.53,1399.15C396.199,1400.67 398.756,1408.95 399.303,1409.74C399.851,1410.54 399.912,1411.59 399.912,1411.59L383.146,1411.59Z" style="fill:rgb(208,234,197);"/>
        <path d="M451.481,1184.43C451.481,1184.43 445.676,1240.16 441.903,1257.86C438.13,1275.57 434.937,1284.86 430.874,1291.53C426.811,1298.21 422.167,1308.08 419.555,1310.69C416.943,1313.3 415.201,1314.75 415.201,1314.75C415.201,1314.75 414.331,1340.58 412.589,1350.74C410.848,1360.9 408.816,1379.47 406.494,1387.02C404.172,1394.57 398.077,1413.43 398.077,1413.43L412.589,1413.43C412.589,1413.43 426.811,1373.96 430.874,1357.12C434.937,1340.29 440.162,1316.78 441.903,1308.37C443.645,1299.95 445.966,1289.5 445.966,1284.86C445.966,1280.21 455.254,1274.7 459.608,1263.96C463.961,1253.22 467.769,1219.55 464.867,1210.85C461.964,1202.14 462.185,1197.79 459.608,1194.59C457.03,1191.4 451.481,1184.43 451.481,1184.43Z" style="fill:rgb(148,206,185);"/>
        <path d="M417.56,1183.27C417.56,1183.27 414.658,1192.85 410.304,1217.81C405.951,1242.77 405.661,1247.12 402.758,1280.5C399.856,1313.88 397.244,1335.93 397.824,1350.74C398.405,1365.54 395.793,1414.01 397.824,1418.36C399.856,1422.71 417.56,1422.71 417.56,1422.71C417.56,1422.71 437.587,1251.73 417.56,1183.27Z" style="fill:rgb(208,234,197);"/>
        <g transform="matrix(1.83876,0,0,1.83876,-1511.63,-1657.94)">
            <path d="M1064.06,1667.18L1019.5,1669.28C1014.54,1669.09 1007.38,1668.87 1002.71,1670.95C994.157,1674.79 998.128,1685.28 999.366,1691.6C1001.19,1700.88 1002.99,1710.17 1004.95,1719.43C1006.49,1726.74 1008.11,1734.62 1012.09,1741.13C1018.14,1751.02 1031.05,1755.32 1042.02,1755.64C1049.07,1755.85 1057.76,1755.17 1064.31,1752.22C1073.35,1748.15 1075.29,1735.18 1077.51,1727.29C1079.53,1720.06 1081.53,1712.83 1083.38,1705.56C1086.38,1693.76 1087.61,1689.87 1087.03,1677.62C1086.9,1674.93 1085.07,1671.61 1082.55,1670.41C1079.72,1669.06 1076.64,1668.2 1073.55,1667.66C1070.43,1667.12 1067.22,1667.08 1064.06,1667.18" style="fill:rgb(198,233,247);"/>
        </g>
    </g>
</svg>
