<?xml version="1.0" encoding="UTF-8" standalone="no"?>
<!DOCTYPE svg PUBLIC "-//W3C//DTD SVG 1.1//EN" "http://www.w3.org/Graphics/SVG/1.1/DTD/svg11.dtd">
<svg width="100%" height="100%" viewBox="0 0 356 310" version="1.1" xmlns="http://www.w3.org/2000/svg" xmlns:xlink="http://www.w3.org/1999/xlink" xml:space="preserve" xmlns:serif="http://www.serif.com/" style="fill-rule:evenodd;clip-rule:evenodd;stroke-linejoin:round;stroke-miterlimit:2;">
    <g id="Layer2" transform="matrix(1,0,0,1,-543.124,-1258.2)">
        <path d="M736.978,1413.47C736.978,1413.47 758.091,1372.95 759.422,1370.48C760.754,1368.01 770.835,1349.17 771.501,1348.13C772.166,1347.08 789.066,1317.62 790.517,1315.01C791.968,1312.39 797.773,1306.3 801.836,1303.98C805.9,1301.66 842.76,1277.28 852.337,1274.66C861.915,1272.05 874.686,1267.41 877.878,1268.57C881.071,1269.73 888.037,1272.05 888.617,1274.66C889.198,1277.28 886.295,1281.63 885.424,1282.79C884.554,1283.95 881.942,1279.31 877.878,1282.79C873.815,1286.27 856.691,1298.46 852.337,1301.08C847.984,1303.69 824.185,1319.36 817.799,1323.13C811.414,1326.91 785.583,1338.52 780.359,1343.45C775.135,1348.38 750.174,1396.27 746.691,1404.98C743.208,1413.69 742.048,1416.59 742.048,1416.59L736.978,1413.47Z" style="fill:rgb(94,135,93);"/>
        <path d="M617.246,1262.76C617.246,1262.76 634.08,1261.02 639.304,1259.57C644.528,1258.12 658.75,1256.38 664.264,1262.76C669.779,1269.15 679.356,1277.86 682.259,1282.79C685.161,1287.72 692.127,1299.04 694.739,1303.4C697.351,1307.75 701.705,1315.88 702.285,1319.94C702.866,1324 701.414,1333.58 702.285,1337.36C703.156,1341.13 704.607,1346.93 706.929,1351C709.251,1355.06 715.056,1363.77 717.958,1368.99C720.86,1374.21 728.697,1394.82 730.728,1398.6C732.76,1402.37 735.953,1414.27 735.953,1414.27L730.728,1414.27C730.728,1414.27 717.668,1379.73 714.765,1374.8C711.863,1369.86 709.831,1358.54 706.929,1356.22C704.027,1353.9 700.253,1337.93 698.802,1337.36C697.351,1336.77 692.707,1331.26 684.581,1330.39C676.454,1329.52 662.813,1327.49 659.33,1326.62C655.847,1325.75 644.238,1321.1 634.95,1311.52C625.663,1301.95 618.117,1286.85 617.246,1282.79C616.375,1278.73 616.665,1265.96 617.246,1262.76Z" style="fill:rgb(149,181,148);"/>
        <path d="M894.671,1465.71L898.299,1463.89C898.299,1463.89 895.578,1458.45 890.136,1448.02C884.694,1437.59 885.601,1428.07 884.694,1421.72C883.787,1415.37 884.694,1411.74 880.612,1405.39C876.531,1399.05 875.17,1394.51 863.833,1385.44C852.496,1376.37 842.972,1365.94 827.553,1361.4C812.135,1356.87 801.251,1354.6 793.541,1355.96C785.832,1357.32 783.565,1355.96 783.565,1355.96C783.565,1355.96 771.32,1355.51 759.983,1355.96C748.645,1356.42 752.273,1356.42 744.111,1361.4C735.948,1366.39 736.401,1365.03 734.587,1372.29C732.773,1379.55 733.68,1407.66 734.587,1412.65C735.494,1417.64 739.122,1412.65 739.122,1412.65C739.122,1412.65 738.801,1391.08 739.122,1386.77C739.444,1382.46 737.315,1377.55 739.122,1374.13C740.93,1370.72 742.118,1367.75 745.536,1365.37C748.954,1362.99 750.589,1362.05 753.858,1361.4C757.127,1360.76 761.734,1359.57 764.408,1359.57C767.083,1359.57 782.092,1358.98 786.699,1359.57C791.305,1360.17 809.88,1360.56 813.15,1361.4C816.419,1362.25 825.186,1363.73 829.942,1366.7C834.697,1369.68 832.372,1376.87 834.912,1394.65C837.451,1412.43 834.912,1418.96 841.442,1427.66C847.972,1436.37 858.652,1444.44 863.833,1448.02C869.014,1451.61 874.433,1453.42 880.612,1456.69C886.791,1459.95 898.299,1463.89 898.299,1463.89" style="fill:rgb(149,181,148);"/>
        <path d="M558.127,1505.86C558.127,1505.86 570.607,1496.57 582.797,1480.89C594.987,1465.22 604.565,1457.38 606.596,1452.16C608.628,1446.94 617.045,1436.49 621.108,1428.07C625.171,1419.65 628.654,1410.37 631.847,1402.82C635.039,1395.28 636.491,1391.5 638.232,1386.57C639.973,1381.63 641.715,1373.8 646.939,1372.06C652.163,1370.31 650.712,1368.28 658.839,1368.86C666.965,1369.44 674.512,1371.18 681.477,1378.44C688.443,1385.7 697.44,1407.46 697.44,1409.21C697.44,1410.95 699.456,1409.21 699.456,1409.21C699.456,1409.21 698.346,1406.05 697.44,1403.61C696.535,1401.17 690.856,1386.76 687.698,1382.49C684.541,1378.22 673.259,1364.66 658.839,1367.07C644.418,1369.49 641.702,1374.6 640.637,1375.9C639.571,1377.19 637.897,1381.53 637.365,1383.35C636.832,1385.18 635.463,1386.32 634.398,1387.61C633.332,1388.91 629.68,1391.19 627.55,1392.33C625.42,1393.47 619.79,1395.07 616.67,1395.75C613.551,1396.44 609.939,1395.93 604.946,1397.12C599.953,1398.31 594.96,1400.79 592.344,1402.82C589.729,1404.85 585.375,1406.87 582.797,1410.2C580.218,1413.53 577.96,1417.81 576.533,1420.78C575.107,1423.75 569.426,1435.81 568.033,1441.39C566.64,1446.96 563.622,1459.03 562.228,1464.84C560.835,1470.64 558.437,1475.52 558.127,1477.38C557.817,1479.23 555.495,1484.34 553.87,1488.52C552.244,1492.7 551.548,1498.74 549.922,1501.29C548.297,1503.85 548.065,1508.95 546.904,1510.58C545.743,1512.2 558.127,1505.86 558.127,1505.86Z" style="fill:rgb(149,181,148);"/>
        <g transform="matrix(1.83876,0,0,1.83876,-1186.39,-1660.77)">
            <path d="M1064.06,1667.18L1019.5,1669.28C1014.54,1669.09 1007.38,1668.87 1002.71,1670.95C994.157,1674.79 998.128,1685.28 999.366,1691.6C1001.19,1700.88 1002.99,1710.17 1004.95,1719.43C1006.49,1726.74 1008.11,1734.62 1012.09,1741.13C1018.14,1751.02 1031.05,1755.32 1042.02,1755.64C1049.07,1755.85 1057.76,1755.17 1064.31,1752.22C1073.35,1748.15 1075.29,1735.18 1077.51,1727.29C1079.53,1720.06 1081.53,1712.83 1083.38,1705.56C1086.38,1693.76 1087.61,1689.87 1087.03,1677.62C1086.9,1674.93 1085.07,1671.61 1082.55,1670.41C1079.72,1669.06 1076.64,1668.2 1073.55,1667.66C1070.43,1667.12 1067.22,1667.08 1064.06,1667.18" style="fill:rgb(166,154,254);"/>
        </g>
        <path d="M712.443,1417.17C712.443,1417.17 711.282,1402.95 710.702,1401.21C710.122,1399.47 705.768,1395.4 700.253,1395.98C694.739,1396.56 686.903,1399.17 680.808,1401.21C674.713,1403.24 665.135,1418.91 662.523,1424.14C659.911,1429.36 658.169,1435.45 656.718,1438.65C655.267,1441.84 653.816,1446.48 652.364,1450.26C650.913,1454.03 648.882,1458.67 646.85,1462.16C644.818,1465.64 644.238,1466.22 644.238,1466.22C644.238,1466.22 651.494,1463.61 656.718,1459.25C661.942,1454.9 667.457,1446.19 669.198,1442.42C670.94,1438.65 675.003,1425.59 676.744,1421.23C678.486,1416.88 680.364,1409.1 681.657,1407.42C682.95,1405.75 684.32,1404.31 685.994,1403.47C687.668,1402.63 690.331,1401.11 692.157,1400.58C693.983,1400.04 695.733,1399.59 698.472,1399.44C701.211,1399.28 703.645,1398.9 704.863,1399.44C706.08,1399.97 707.906,1399.44 708.819,1403.47C709.732,1407.5 710.683,1408.72 710.702,1411.84C710.721,1414.96 710.702,1417.17 710.702,1417.17L712.443,1417.17Z" style="fill:rgb(149,181,148);"/>
        <path d="M543.449,1433.77C543.449,1433.77 546.236,1429.49 549.208,1427.26C552.18,1425.04 557.381,1423.18 559.981,1422.99C562.582,1422.81 567.226,1424.66 572.612,1424.66C577.999,1424.66 584.129,1423.18 587.473,1420.95C590.816,1418.72 595.646,1417.61 599.175,1413.7C602.704,1409.8 606.048,1408.32 609.763,1403.86C613.478,1399.4 615.149,1396.62 616.45,1393.27C617.75,1389.93 618.864,1387.7 619.608,1385.84C620.351,1383.98 622.58,1378.6 623.88,1377.11C625.18,1375.62 626.48,1373.4 628.895,1372.1C631.31,1370.8 633.353,1369.68 637.068,1368.75C640.783,1367.82 646.17,1366.89 649.142,1366.34C652.114,1365.78 665.488,1364.67 667.346,1364.67C669.203,1364.67 678.305,1364.11 680.905,1364.67C683.506,1365.22 686.664,1365.22 688.707,1366.34C690.75,1367.45 693.537,1368.57 696.137,1372.1C698.738,1375.62 703.01,1379.34 704.124,1381.94C705.239,1384.54 706.539,1388.07 707.282,1390.11C708.025,1392.16 711.369,1397.73 711.926,1399.77C712.483,1401.82 713.783,1404.6 713.783,1406.27L713.783,1409.99L716.57,1409.99C716.57,1409.99 711.74,1393.46 709.883,1390.11C708.025,1386.77 706.425,1383.52 705.664,1381.94C704.903,1380.36 704.142,1379.19 703.001,1377.11C701.86,1375.04 699.729,1372.88 698.968,1372.1C698.208,1371.31 691.436,1365.33 689.762,1364.67C688.088,1364 682.092,1362.63 680.905,1362.48C679.719,1362.33 670.209,1362.48 670.209,1362.48C670.209,1362.48 659.938,1362.02 659.253,1362.48C658.568,1362.94 651.128,1363.24 649.142,1363.62C647.155,1364 640.232,1365.78 638.178,1366.34C636.123,1366.89 631.863,1367.8 629.732,1368.75C627.602,1369.71 599.631,1369.19 581.346,1381.94C563.061,1394.69 558.127,1398.8 554.064,1403.86C550,1408.92 542.703,1427.85 543.449,1433.77Z" style="fill:rgb(94,135,93);"/>
        <path d="M720.657,1403.99C720.657,1403.99 706.867,1403.04 704.965,1413.74C703.063,1424.44 704.094,1427.04 704.965,1430.69C705.835,1434.34 708.644,1440.92 708.984,1441.45C709.325,1441.99 710.64,1443.79 711.127,1444.33C711.614,1444.86 712.442,1445.69 712.783,1445.98C713.123,1446.27 713.571,1446.72 713.571,1446.72C713.571,1446.72 718.511,1444.91 719.804,1444.33C721.097,1443.74 725.663,1441.15 727.793,1438.64C729.923,1436.13 730.912,1434.84 731.977,1432.86C733.043,1430.88 733.575,1428.6 733.956,1426.77C734.336,1424.95 734.945,1421.22 734.793,1419.93C734.64,1418.63 731.759,1412.29 730.237,1410.39C728.715,1408.49 720.657,1403.99 720.657,1403.99Z" style="fill:rgb(94,135,93);"/>
        <g transform="matrix(0.99969,0.00187195,0.00187195,0.988713,-2.48619,14.991)">
            <path d="M713.744,1446.5L720.83,1403.77" style="fill:none;"/>
        </g>
        <path d="M734.832,1406.4L737.447,1406.4C737.447,1406.4 736.972,1401.05 737.447,1398.19C737.923,1395.34 737.091,1392.13 737.447,1388.21C737.804,1384.29 739.587,1378.46 740.657,1376.68C741.727,1374.89 744.105,1371.33 745.769,1370.61C747.433,1369.9 748.741,1369.9 750.406,1370.61C752.07,1371.33 752.664,1371.68 754.566,1373.59C756.468,1375.49 759.678,1377.51 760.51,1378.94C761.343,1380.36 762.294,1381.55 761.937,1385.24C761.58,1388.92 760.154,1397.48 760.51,1401.52C760.867,1405.57 762.175,1413.41 763.245,1415.31C764.315,1417.21 769.545,1425.3 772.161,1427.32C774.776,1429.34 781.909,1435.29 784.643,1437.78C787.377,1440.28 791.301,1443.49 792.252,1444.8C793.203,1446.1 796.175,1449.43 797.126,1450.74C798.077,1452.05 800.335,1454.9 801.643,1456.45C802.951,1457.99 807.468,1462.27 808.538,1463.34C809.608,1464.41 813.65,1467.45 814.601,1468.17C815.552,1468.88 818.049,1470.66 818.049,1470.66C818.049,1470.66 815.909,1448.2 810.084,1435C804.259,1421.8 798.552,1413.84 795.58,1409.68C792.608,1405.52 778.461,1387.07 775.727,1385.24C772.993,1383.41 764.79,1378.94 764.79,1378.94C764.79,1378.94 758.489,1373.3 756.825,1371.87C755.161,1370.45 749.811,1367.24 747.433,1367.36C745.056,1367.48 741.608,1368.64 740.657,1370.61C739.706,1372.59 737.447,1378.39 737.447,1378.94C737.447,1379.48 736.496,1381.86 736.021,1383.88C735.545,1385.9 734.951,1390.78 734.832,1392.68C734.713,1394.58 734.713,1400.86 734.832,1401.52C734.951,1402.19 734.832,1406.4 734.832,1406.4Z" style="fill:rgb(149,181,148);"/>
    </g>
</svg>
